# xmcd
#
# Track frame offsets:
#	150
#	35351
#	52624
#	87565
#	99775
#	121423
#	131476
#	149270
#	178742
#	225880
#	251009
#
# Disc length: 3596 seconds
#
# Revision: 0
# Processed by: cddbd v1.4PL0 Copyright (c) Steve Scherf et al.
# Submitted via: dBpowerAMP V4.0
#
DISCID=840e0a0b
DTITLE=Erik Truffaz - '' La memoire du silence ''
DYEAR=1900
DGENRE=
TTITLE0=La memoire du silence
TTITLE1=Magrouni
TTITLE2=Mantis
TTITLE3=Mare masso
TTITLE4=Nina Valeria
TTITLE5=No fear
TTITLE6=Parlophone
TTITLE7=Saisir
TTITLE8=Tahun bahu
TTITLE9=The point
TTITLE10=Yasmina
EXTD=
EXTT0=
EXTT1=
EXTT2=
EXTT3=
EXTT4=
EXTT5=
EXTT6=
EXTT7=
EXTT8=
EXTT9=
EXTT10=
PLAYORDER=
